<svg width="48" height="48" viewBox="0 0 48 48" fill="none" xmlns="http://www.w3.org/2000/svg">
<path d="M15.2925 7.78428C16.8269 6.62218 18.7002 5.9954 20.625 6.00003C21.165 6.00003 21.5947 6.28128 21.8445 6.47478C22.1235 6.69528 22.3845 6.97653 22.6185 7.25778C22.7844 7.45929 22.8751 7.71224 22.875 7.97328V16.125H20.4338C20.1684 15.3744 19.6462 14.7418 18.9595 14.3389C18.2727 13.9361 17.4657 13.789 16.681 13.9236C15.8964 14.0583 15.1845 14.466 14.6714 15.0747C14.1582 15.6834 13.8768 16.4539 13.8768 17.25C13.8768 18.0462 14.1582 18.8167 14.6714 19.4254C15.1845 20.0341 15.8964 20.4418 16.681 20.5764C17.4657 20.7111 18.2727 20.5639 18.9595 20.1611C19.6462 19.7583 20.1684 19.1256 20.4338 18.375H22.875V39.5588C22.8751 39.7254 22.8382 39.8899 22.767 40.0405C22.6958 40.191 22.5921 40.3239 22.4633 40.4295C21.4238 41.28 20.0332 42 18.375 42C15.7065 42 13.7198 40.6545 12.435 39.0458C11.512 37.8995 10.8797 36.5471 10.5922 35.1038C9.71808 34.8707 8.90756 34.4439 8.22075 33.855C6.97875 32.7908 6 31.065 6 28.5C6 27.2468 6.08325 26.115 6.27 25.125H13.3125C14.7435 25.125 15.9225 26.1938 16.1025 27.5753C15.3543 27.8461 14.7258 28.3725 14.328 29.0617C13.9302 29.7509 13.7887 30.5584 13.9285 31.3418C14.0683 32.1252 14.4804 32.8339 15.092 33.343C15.7036 33.852 16.4755 34.1285 17.2712 34.1238C18.0669 34.119 18.8353 33.8333 19.4408 33.317C20.0463 32.8007 20.4499 32.087 20.5804 31.302C20.7108 30.5171 20.5597 29.7113 20.1537 29.0269C19.7477 28.3425 19.1129 27.8236 18.3615 27.5618C18.2667 26.2876 17.6935 25.0964 16.7571 24.2272C15.8207 23.3579 14.5902 22.8749 13.3125 22.875H6.99225C7.3365 22.2045 7.79775 21.6375 8.3985 21.2348C8.55046 21.1342 8.70993 21.0454 8.8755 20.9693C8.2365 19.0973 8.403 16.9058 9.0195 15.1845C9.41325 14.0775 10.0388 13.0313 10.8983 12.3338C11.4653 11.8725 12.1403 11.5688 12.8783 11.5103C13.2023 9.97353 14.1135 8.70228 15.2948 7.78428H15.2925ZM25.125 34.125H26.8125C28.1552 34.125 29.4428 33.5917 30.3922 32.6423C31.3416 31.6929 31.875 30.4052 31.875 29.0625V24.9338C32.6256 24.6684 33.2582 24.1462 33.6611 23.4595C34.0639 22.7728 34.211 21.9658 34.0764 21.1811C33.9418 20.3964 33.5341 19.6846 32.9254 19.1714C32.3167 18.6582 31.5461 18.3768 30.75 18.3768C29.9539 18.3768 29.1833 18.6582 28.5746 19.1714C27.9659 19.6846 27.5582 20.3964 27.4236 21.1811C27.289 21.9658 27.4361 22.7728 27.8389 23.4595C28.2418 24.1462 28.8744 24.6684 29.625 24.9338V29.0625C29.625 30.615 28.365 31.875 26.8125 31.875H25.125V7.97328C25.1249 7.71224 25.2156 7.45929 25.3815 7.25778C25.6133 6.97653 25.8765 6.69528 26.1555 6.47478C26.403 6.28128 26.8328 6.00003 27.375 6.00003C29.2998 5.9954 31.1731 6.62218 32.7075 7.78428C33.8888 8.70228 34.8 9.97353 35.1217 11.5103C35.8597 11.5665 36.5347 11.8725 37.1017 12.3338C37.9613 13.0313 38.5868 14.0775 38.9805 15.1845C39.597 16.9058 39.7635 19.0995 39.1245 20.967C39.2865 21.0435 39.4463 21.1335 39.6015 21.237C40.2202 21.6488 40.6905 22.2383 41.037 22.9335C41.7188 24.2948 42 26.1938 42 28.5C42 31.0673 41.0213 32.7908 39.7793 33.855C39.0924 34.4439 38.2819 34.8707 37.4077 35.1038C37.1827 36.3593 36.5528 37.8128 35.565 39.0458C34.2825 40.6545 32.2935 42 29.625 42C27.969 42 26.5763 41.28 25.539 40.4295C25.4098 40.3241 25.3056 40.1913 25.234 40.0408C25.1624 39.8902 25.1252 39.7255 25.125 39.5588V34.125ZM17.25 16.125C16.9516 16.125 16.6655 16.2436 16.4545 16.4545C16.2435 16.6655 16.125 16.9517 16.125 17.25C16.125 17.5484 16.2435 17.8345 16.4545 18.0455C16.6655 18.2565 16.9516 18.375 17.25 18.375C17.5484 18.375 17.8345 18.2565 18.0455 18.0455C18.2565 17.8345 18.375 17.5484 18.375 17.25C18.375 16.9517 18.2565 16.6655 18.0455 16.4545C17.8345 16.2436 17.5484 16.125 17.25 16.125ZM17.25 29.625C16.9516 29.625 16.6655 29.7436 16.4545 29.9545C16.2435 30.1655 16.125 30.4517 16.125 30.75C16.125 31.0484 16.2435 31.3345 16.4545 31.5455C16.6655 31.7565 16.9516 31.875 17.25 31.875C17.5484 31.875 17.8345 31.7565 18.0455 31.5455C18.2565 31.3345 18.375 31.0484 18.375 30.75C18.375 30.4517 18.2565 30.1655 18.0455 29.9545C17.8345 29.7436 17.5484 29.625 17.25 29.625ZM30.75 22.875C31.0484 22.875 31.3345 22.7565 31.5455 22.5455C31.7565 22.3345 31.875 22.0484 31.875 21.75C31.875 21.4517 31.7565 21.1655 31.5455 20.9545C31.3345 20.7436 31.0484 20.625 30.75 20.625C30.4516 20.625 30.1655 20.7436 29.9545 20.9545C29.7435 21.1655 29.625 21.4517 29.625 21.75C29.625 22.0484 29.7435 22.3345 29.9545 22.5455C30.1655 22.7565 30.4516 22.875 30.75 22.875Z" fill="#1B77C1"/>
</svg>
