<svg width="20" height="20" viewBox="0 0 20 20" fill="none" xmlns="http://www.w3.org/2000/svg">
<path fill-rule="evenodd" clip-rule="evenodd" d="M8.16664 12.3227V12.3227L8.16662 12.3438C8.16662 13.6381 6.52493 14.6875 4.49996 14.6875C2.47498 14.6875 0.833864 13.6381 0.833864 12.3438L0.833799 12.3125C0.833676 12.2735 0.833567 12.2391 0.835436 12.2049C0.849231 11.9521 0.970763 11.7051 1.98934 9.63545L1.98935 9.63545L1.98937 9.63539L1.9895 9.63514L1.98953 9.63507C2.31571 8.9723 2.73387 8.12264 3.26991 7.02607C3.77636 5.99014 5.22412 5.99219 5.72972 7.02607C6.29883 8.19015 6.73505 9.07498 7.06942 9.75321L7.06943 9.75322C8.02427 11.69 8.14849 11.9419 8.16437 12.2006C8.16674 12.2392 8.1667 12.2781 8.16664 12.3227ZM4.49996 7.65625L4.50212 7.66068L4.36797 7.92623L4.49996 7.65625ZM19.1661 12.3223V12.3224L19.1661 12.3438C19.1661 13.6381 17.5249 14.6875 15.5 14.6875C13.475 14.6875 11.8339 13.6381 11.8339 12.3438L11.8338 12.3125C11.8337 12.2735 11.8336 12.2391 11.8354 12.2049C11.8492 11.9521 11.9708 11.7051 12.9894 9.63541L12.9895 9.63508L12.9896 9.63501L12.9896 9.63497C13.3158 8.97221 13.7339 8.12259 14.2699 7.02607C14.7764 5.99014 16.2241 5.99219 16.7297 7.02607C17.2952 8.18269 17.7294 9.06363 18.0629 9.74014C19.0235 11.6888 19.148 11.9414 19.1638 12.2006C19.1662 12.2391 19.1661 12.2778 19.1661 12.3223ZM15.4978 7.66068L15.632 7.92627L15.5 7.65625L15.4978 7.66068ZM10.9166 15.625H15.9583C16.2115 15.625 16.4166 15.8348 16.4166 16.0938V17.0312C16.4166 17.2902 16.2115 17.5 15.9583 17.5H4.04162C3.7884 17.5 3.58329 17.2902 3.58329 17.0312V16.0938C3.58329 15.8348 3.7884 15.625 4.04162 15.625H9.08329V6.98975C8.40954 6.68828 7.90423 6.06719 7.75441 5.3125H4.04162C3.7884 5.3125 3.58329 5.10273 3.58329 4.84375V3.90625C3.58329 3.64727 3.7884 3.4375 4.04162 3.4375H8.17694C8.59517 2.87148 9.25259 2.5 9.99996 2.5C10.7473 2.5 11.4047 2.87148 11.823 3.4375H15.9583C16.2115 3.4375 16.4166 3.64727 16.4166 3.90625V4.84375C16.4166 5.10273 16.2115 5.3125 15.9583 5.3125H12.2455C12.0957 6.06748 11.5901 6.68828 10.9166 6.98975V15.625ZM18.3334 12.3334C18.3334 13.2539 17.0835 14.0001 15.5417 14.0001C13.9999 14.0001 12.75 13.2539 12.75 12.3334L15.5417 12.3334L18.3334 12.3334ZM4.45833 14.0001C6.00013 14.0001 7.25 13.2539 7.25 12.3334L4.45833 12.3334L1.66667 12.3334C1.66667 13.2539 2.91654 14.0001 4.45833 14.0001Z" fill="white"/>
</svg>
