<svg width="16" height="16" viewBox="0 0 16 16" fill="none" xmlns="http://www.w3.org/2000/svg">
<path d="M12.1891 13.3591C12.1891 13.5518 12.1319 13.7401 12.0247 13.9004C11.9176 14.0606 11.7653 14.1855 11.5871 14.2592C11.4089 14.333 11.2129 14.3523 11.0237 14.3147C10.8346 14.2771 10.6608 14.1843 10.5244 14.048C10.3881 13.9118 10.2952 13.7381 10.2576 13.5491C10.2199 13.3601 10.2392 13.1642 10.3131 12.9862C10.3869 12.8081 10.5118 12.656 10.6722 12.5489C10.8326 12.4418 11.0211 12.3847 11.214 12.3847C11.4726 12.3847 11.7206 12.4874 11.9035 12.6701C12.0863 12.8528 12.1891 13.1006 12.1891 13.3591ZM4.87563 12.3847C4.68277 12.3847 4.49424 12.4418 4.33388 12.5489C4.17352 12.656 4.04854 12.8081 3.97473 12.9862C3.90093 13.1642 3.88162 13.3601 3.91924 13.5491C3.95687 13.7381 4.04974 13.9118 4.18611 14.048C4.32249 14.1843 4.49624 14.2771 4.68539 14.3147C4.87455 14.3523 5.07061 14.333 5.2488 14.2592C5.42698 14.1855 5.57927 14.0606 5.68642 13.9004C5.79357 13.7401 5.85076 13.5518 5.85076 13.3591C5.85076 13.1006 5.74802 12.8528 5.56515 12.6701C5.38228 12.4874 5.13425 12.3847 4.87563 12.3847ZM13.9016 4.29648C13.8562 4.23629 13.7974 4.18745 13.7299 4.15381C13.6624 4.12018 13.588 4.10266 13.5125 4.10265H2.94488L2.45043 2.3734C2.39159 2.17017 2.26842 1.99146 2.09937 1.86406C1.93033 1.73666 1.72452 1.66743 1.51279 1.66675H0.487563C0.358253 1.66675 0.23424 1.71808 0.142804 1.80944C0.0513681 1.9008 0 2.02472 0 2.15393C0 2.28314 0.0513681 2.40705 0.142804 2.49842C0.23424 2.58978 0.358253 2.64111 0.487563 2.64111H1.51279L2.10578 4.71497C2.10743 4.72094 2.10908 4.7269 2.11097 4.73287L3.71718 10.3503C3.80538 10.6552 3.99011 10.9233 4.24367 11.1144C4.49723 11.3055 4.80595 11.4093 5.12356 11.4103H10.966C11.2836 11.4093 11.5923 11.3055 11.8459 11.1144C12.0995 10.9233 12.2842 10.6552 12.3724 10.3503L13.9812 4.72368C14.002 4.65118 14.0056 4.57486 13.9918 4.50073C13.978 4.4266 13.9471 4.35668 13.9016 4.29648Z" fill="white"/>
</svg>
