<svg width="18" height="20" viewBox="0 0 18 20" fill="none" xmlns="http://www.w3.org/2000/svg">
<path d="M0 20H18V17.7027C17.9981 16.4487 17.3337 15.2465 16.1527 14.3599C14.9716 13.4732 13.3703 12.9744 11.7 12.973H6.3C4.62972 12.9744 3.0284 13.4732 1.84733 14.3599C0.666266 15.2465 0.00190563 16.4487 0 17.7027V20Z" fill="white"/>
<path d="M3.27273 5.67568C3.27273 6.79822 3.60863 7.89555 4.23795 8.82891C4.86727 9.76227 5.76174 10.4897 6.80827 10.9193C7.85479 11.3489 9.00635 11.4613 10.1173 11.2423C11.2283 11.0233 12.2488 10.4827 13.0498 9.68898C13.8508 8.89523 14.3962 7.88392 14.6172 6.78294C14.8382 5.68197 14.7248 4.54078 14.2913 3.50369C13.8578 2.46659 13.1237 1.58018 12.1819 0.956524C11.2401 0.332873 10.1327 0 9 0C7.48103 0 6.02428 0.597971 4.95021 1.66237C3.87614 2.72676 3.27273 4.17039 3.27273 5.67568Z" fill="white"/>
</svg>
