<svg width="48" height="48" viewBox="0 0 48 48" fill="none" xmlns="http://www.w3.org/2000/svg">
<path d="M24 22C25.6569 22 27 20.6569 27 19C27 17.3431 25.6569 16 24 16C22.3432 16 21 17.3431 21 19C21 20.6569 22.3432 22 24 22Z" fill="#1B77C1"/>
<path d="M24 4C19.7842 3.99979 15.7385 5.66352 12.7425 8.62958C9.7465 11.5956 8.0422 15.6243 8.00004 19.84C8.00004 30.8 22.1 43 22.7 43.52C23.0623 43.8299 23.5233 44.0001 24 44.0001C24.4767 44.0001 24.9378 43.8299 25.3 43.52C26 43 40 30.8 40 19.84C39.9579 15.6243 38.2536 11.5956 35.2575 8.62958C32.2615 5.66352 28.2159 3.99979 24 4ZM24 26C22.6156 26 21.2622 25.5895 20.111 24.8203C18.9599 24.0511 18.0627 22.9579 17.5329 21.6788C17.0031 20.3997 16.8644 18.9922 17.1345 17.6344C17.4046 16.2765 18.0713 15.0292 19.0503 14.0503C20.0293 13.0713 21.2765 12.4046 22.6344 12.1345C23.9923 11.8644 25.3997 12.003 26.6788 12.5328C27.9579 13.0627 29.0512 13.9599 29.8203 15.111C30.5895 16.2622 31 17.6155 31 19C31 20.8565 30.2625 22.637 28.9498 23.9497C27.637 25.2625 25.8566 26 24 26Z" fill="#1B77C1"/>
</svg>
