<svg width="48" height="48" viewBox="0 0 48 48" fill="none" xmlns="http://www.w3.org/2000/svg">
<path d="M28.1624 14.1521C27.8153 14.5062 27.6209 14.9823 27.6209 15.4781C27.6209 15.9739 27.8153 16.45 28.1624 16.8041L31.1932 19.8349C31.5473 20.1819 32.0233 20.3764 32.5191 20.3764C33.015 20.3764 33.491 20.1819 33.8451 19.8349L40.9864 12.6936C41.9389 14.7984 42.2273 17.1436 41.8132 19.4165C41.399 21.6894 40.302 23.7822 38.6684 25.4158C37.0347 27.0495 34.942 28.1465 32.6691 28.5606C30.3961 28.9747 28.051 28.6863 25.9461 27.7339L12.8569 40.8231C12.1033 41.5766 11.0813 42 10.0155 42C8.94983 42 7.92776 41.5766 7.17418 40.8231C6.42061 40.0695 5.99725 39.0474 5.99725 37.9817C5.99725 36.916 6.42061 35.8939 7.17418 35.1403L20.2634 22.0511C19.3109 19.9463 19.0225 17.6011 19.4366 15.3282C19.8508 13.0553 20.9478 10.9625 22.5814 9.32887C24.2151 7.69521 26.3078 6.59822 28.5807 6.18409C30.8537 5.76996 33.1988 6.05836 35.3037 7.01085L28.1813 14.1332L28.1624 14.1521Z" fill="#1B77C1"/>
</svg>
