<svg width="39" height="49" viewBox="0 0 39 49" fill="none" xmlns="http://www.w3.org/2000/svg">
<path d="M1.00484 1.66398H2.78207V40.8379H1.00484V1.66398Z" fill="white" fill-opacity="0.9"/>
<path d="M1.43036 2.78826L1.07963 2.08393C0.792214 1.50674 1.33048 0.862225 1.93277 1.06239L20.8605 7.35282L20.3113 9.08166L1.43036 2.78826Z" fill="white" fill-opacity="0.9"/>
<path d="M1.49889 41.671C1.20664 41.5739 1.00842 41.2959 1.00749 40.9816L1.00642 40.6224C1.00495 40.1277 1.47642 39.776 1.93651 39.9285L22.5086 46.749L20.0651 47.5478C19.7815 47.6405 19.4765 47.6398 19.1933 47.5458L1.49889 41.671Z" fill="white" fill-opacity="0.9"/>
<path d="M37.8332 41.6937C38.1262 41.5964 38.3246 41.3172 38.3246 41.0021V40.6329C38.3246 40.139 37.8535 39.7888 37.3942 39.9413L16.7333 46.8017L19.1883 47.5985C19.4712 47.6904 19.775 47.6893 20.0573 47.5956L37.8332 41.6937Z" fill="white" fill-opacity="0.9"/>
<path d="M37.904 2.76278L38.254 2.05815C38.5407 1.48096 38.0025 0.83718 37.4005 1.03727L18.5106 7.31603L19.0598 9.04485L37.904 2.76278Z" fill="white" fill-opacity="0.9"/>
<path d="M36.5495 1.66398H38.3267V40.8379H36.5495V1.66398Z" fill="white" fill-opacity="0.9"/>
<path d="M18.7772 7.48098H20.5544V47.382H18.7772V7.48098Z" fill="white" fill-opacity="0.9"/>
<path d="M5.35906 9.3896C5.35906 8.89593 5.82975 8.54576 6.28892 8.69783L15.7083 11.8172C16.0015 11.9143 16.2002 12.1936 16.2002 12.5089V23.2921C16.2002 23.7869 15.7275 24.1372 15.2678 23.9831L5.84847 20.8243C5.55648 20.7263 5.35906 20.4476 5.35906 20.1333V9.3896Z" fill="white" fill-opacity="0.9"/>
<path d="M23.1314 38.9253C23.1314 39.4201 23.6041 39.7704 24.0637 39.6163L33.4831 36.4574C33.775 36.3595 33.9725 36.0808 33.9725 35.7665V25.0267C33.9725 24.5319 33.4998 24.1816 33.0401 24.3358L23.6208 27.4946C23.3288 27.5925 23.1314 27.8712 23.1314 28.1855V38.9253Z" fill="white" fill-opacity="0.9"/>
<path d="M5.9376 26.4853C5.47085 26.3302 5.21541 25.8174 5.36707 25.34C5.51873 24.8626 6.02004 24.6014 6.48679 24.7565L15.6141 27.7899C16.0809 27.945 16.3363 28.4577 16.1847 28.9351C16.033 29.4125 15.5317 29.6738 15.0649 29.5187L5.9376 26.4853Z" fill="white" fill-opacity="0.9"/>
<path d="M5.9376 31.4843C5.47085 31.3292 5.21541 30.8164 5.36707 30.339C5.51873 29.8616 6.02004 29.6003 6.48679 29.7555L15.6141 32.7888C16.0809 32.944 16.3363 33.4567 16.1847 33.9341C16.033 34.4115 15.5317 34.6728 15.0649 34.5177L5.9376 31.4843Z" fill="white" fill-opacity="0.9"/>
<path d="M5.9376 36.4833C5.47085 36.3282 5.21541 35.8154 5.36707 35.338C5.51873 34.8606 6.02004 34.5993 6.48679 34.7545L15.6141 37.7878C16.0809 37.9429 16.3363 38.4557 16.1847 38.9331C16.033 39.4105 15.5317 39.6718 15.0649 39.5167L5.9376 36.4833Z" fill="white" fill-opacity="0.9"/>
<path d="M23.7099 21.8839C23.2432 22.039 22.9877 22.5517 23.1394 23.0291C23.291 23.5066 23.7924 23.7678 24.2591 23.6127L33.3864 20.5793C33.8532 20.4242 34.1086 19.9115 33.957 19.434C33.8053 18.9566 33.304 18.6954 32.8372 18.8505L23.7099 21.8839Z" fill="white" fill-opacity="0.9"/>
<path d="M23.7099 16.794C23.2432 16.9491 22.9877 17.4619 23.1394 17.9393C23.291 18.4167 23.7924 18.6779 24.2591 18.5228L33.3864 15.4895C33.8532 15.3343 34.1086 14.8216 33.957 14.3442C33.8053 13.8668 33.304 13.6055 32.8372 13.7606L23.7099 16.794Z" fill="white" fill-opacity="0.9"/>
<path d="M23.7099 11.8355C23.2432 11.9907 22.9877 12.5034 23.1394 12.9808C23.291 13.4582 23.7924 13.7195 24.2591 13.5644L33.3864 10.531C33.8532 10.3759 34.1086 9.86313 33.957 9.38572C33.8053 8.90832 33.304 8.64705 32.8372 8.80217L23.7099 11.8355Z" fill="white" fill-opacity="0.9"/>
<path d="M0.754841 41.0879H0.763408C0.804547 41.463 1.05675 41.7876 1.42012 41.9082L16.0493 46.7654L15.9319 46.8044L16.6561 47.0395L19.1111 47.8363C19.4447 47.9446 19.8032 47.9434 20.1361 47.8329L20.7412 47.632H20.8044V47.611L37.9119 41.931C38.2827 41.8079 38.5377 41.4725 38.5709 41.0879H38.5767V40.8379V1.83711C38.5848 1.76455 38.5846 1.69254 38.5767 1.62215V1.41398H38.5301C38.3714 0.94745 37.8737 0.616535 37.3217 0.800027L19.6301 6.68046L2.01161 0.825148C1.46948 0.644975 0.979944 0.960838 0.812143 1.41398H0.754841V1.66398V1.66478C0.749311 1.72394 0.749154 1.78417 0.754841 1.84485V40.8379V41.0879ZM3.03207 3.58566L18.5272 8.75048V45.1656L3.03207 40.0283V3.58566ZM36.2995 40.0414L20.8044 45.1865V8.72679L36.2995 3.56122V40.0414ZM6.56564 34.5172L6.48679 34.7545L6.56563 34.5172C5.96248 34.3168 5.32132 34.6563 5.1288 35.2623C4.93702 35.866 5.25822 36.521 5.85875 36.7205L14.9861 39.7539C15.5892 39.9544 16.2304 39.6148 16.4229 39.0088C16.6147 38.4051 16.2935 37.7502 15.693 37.5506L6.56564 34.5172ZM6.36752 8.4605C5.73896 8.25235 5.10906 8.73357 5.10906 9.3896V20.1333C5.10906 20.552 5.3723 20.9283 5.76898 21.0613L15.1883 24.2201C15.8176 24.4311 16.4502 23.9497 16.4502 23.2921V12.5089C16.4502 12.0889 16.1853 11.7118 15.7868 11.5798L6.36752 8.4605ZM22.8814 38.9253C22.8814 39.5829 23.514 40.0643 24.1432 39.8533L33.5625 36.6945C33.9592 36.5614 34.2225 36.1852 34.2225 35.7665V25.0267C34.2225 24.3692 33.5899 23.8877 32.9606 24.0987L23.5413 27.2576C23.1446 27.3906 22.8814 27.7668 22.8814 28.1855V38.9253ZM5.1288 25.2643C4.93702 25.8681 5.25822 26.523 5.85875 26.7226L14.9861 29.7559C15.5892 29.9564 16.2304 29.6169 16.4229 29.0108C16.6147 28.4071 16.2935 27.7522 15.693 27.5526L6.56564 24.5192C5.96248 24.3188 5.32132 24.6583 5.1288 25.2643ZM5.1288 30.2633C4.93702 30.8671 5.25822 31.522 5.85875 31.7215L14.9861 34.7549C15.5892 34.9554 16.2304 34.6158 16.4229 34.0098C16.6147 33.4061 16.2935 32.7512 15.693 32.5516L6.56564 29.5182C5.96248 29.3178 5.32132 29.6573 5.1288 30.2633ZM23.6311 21.6466C23.0305 21.8462 22.7093 22.5011 22.9011 23.1048C23.0936 23.7109 23.7348 24.0504 24.3379 23.8499L33.4653 20.8166C34.0658 20.617 34.387 19.9621 34.1952 19.3584C34.0027 18.7523 33.3615 18.4128 32.7584 18.6132L23.6311 21.6466ZM23.6311 16.5567C23.0305 16.7563 22.7093 17.4112 22.9011 18.015C23.0936 18.621 23.7348 18.9605 24.3379 18.7601L33.4653 15.7267C34.0658 15.5271 34.387 14.8722 34.1952 14.2685C34.0027 13.6624 33.3615 13.3229 32.7584 13.5234L23.6311 16.5567ZM23.6311 11.5983C23.0305 11.7979 22.7093 12.4528 22.9011 13.0565C23.0936 13.6625 23.7348 14.0021 24.3379 13.8016L33.4653 10.7683C34.0658 10.5687 34.387 9.91376 34.1952 9.31003C34.0027 8.704 33.3615 8.36448 32.7584 8.56493L23.6311 11.5983Z" stroke="white" stroke-opacity="0.9" stroke-width="0.5"/>
</svg>
